<?xml version="1.0" encoding="UTF-8" standalone="no"?>
<svg
   xmlns:dc="http://purl.org/dc/elements/1.1/"
   xmlns:cc="http://creativecommons.org/ns#"
   xmlns:rdf="http://www.w3.org/1999/02/22-rdf-syntax-ns#"
   xmlns:svg="http://www.w3.org/2000/svg"
   xmlns="http://www.w3.org/2000/svg"
   xmlns:sodipodi="http://sodipodi.sourceforge.net/DTD/sodipodi-0.dtd"
   xmlns:inkscape="http://www.inkscape.org/namespaces/inkscape"
   stroke-miterlimit="10"
   font-weight="normal"
   font-style="normal"
   font-size="12"
   version="1.1"
   id="svg3711"
   sodipodi:docname="printer.svg"
   inkscape:version="0.92.2 (5c3e80d, 2017-08-06)"
   width="16"
   height="16"
   style="font-style:normal;font-weight:normal;font-size:12px;font-family:Dialog;color-interpolation:auto;fill:#000000;fill-opacity:1;stroke:#000000;stroke-width:1;stroke-linecap:square;stroke-linejoin:miter;stroke-miterlimit:10;stroke-dasharray:none;stroke-dashoffset:0;stroke-opacity:1;color-rendering:auto;image-rendering:auto;shape-rendering:auto;text-rendering:auto">
  <metadata
     id="metadata3715">
    <rdf:RDF>
      <cc:Work
         rdf:about="">
        <dc:format>image/svg+xml</dc:format>
        <dc:type
           rdf:resource="http://purl.org/dc/dcmitype/StillImage" />
        <dc:title></dc:title>
      </cc:Work>
    </rdf:RDF>
  </metadata>
  <sodipodi:namedview
     pagecolor="#ffffff"
     bordercolor="#666666"
     borderopacity="1"
     objecttolerance="10"
     gridtolerance="10"
     guidetolerance="10"
     inkscape:pageopacity="0"
     inkscape:pageshadow="2"
     inkscape:window-width="1920"
     inkscape:window-height="1017"
     id="namedview3713"
     showgrid="false"
     inkscape:zoom="17"
     inkscape:cx="26.530335"
     inkscape:cy="22.027676"
     inkscape:window-x="-8"
     inkscape:window-y="-8"
     inkscape:window-maximized="1"
     inkscape:current-layer="svg3711" />
  <!--Unicode Character 'PRINTER ICON' (U+1F5B6)-->
  <defs
     id="genericDefs"
     width="100%"
     height="100%" />
  <path
     d="m 14.501006,14.233226 q 0,1.008697 -0.217179,1.258322 -0.217179,0.249626 -1.094763,0.249626 H 2.6935319 q -0.8775779,0 -1.094763,-0.249626 -0.2171786,-0.249625 -0.2171786,-1.258322 v -4.024593 q 0,-1.0596389 0.1950216,-1.2837898 0.195015,-0.224158 1.11692,-0.224158 H 4.0054732 V 0.66169381 H 11.877122 V 8.7006852 h 1.311942 q 0.921905,0 1.116926,0.224158 0.195016,0.2241509 0.195016,1.2837898 z M 11.442765,8.7006852 v -7.53974 H 4.4398366 v 7.53974 z m 2.623883,5.5325408 v -4.024593 q 0,-0.7030279 -0.132969,-0.8558619 Q 13.800717,9.1999436 13.189064,9.1999436 H 2.6935319 q -0.6116469,0 -0.7446155,0.1528275 Q 1.815954,9.5056051 1.815954,10.208633 v 4.024593 q 0,0.652086 0.155126,0.830388 0.1551257,0.178309 0.7224519,0.178309 H 13.189064 q 0.567326,0 0.722458,-0.178309 0.155126,-0.178302 0.155126,-0.830388 z M 10.343571,3.1681514 H 5.5390246 V 2.668893 h 4.8045464 z m 0,2.0173866 H 5.5390246 V 4.6760923 h 4.8045464 z m 0,2.0071992 H 5.5390246 V 6.6934859 h 4.8045464 z m 2.189525,5.2370668 q 0,0.75397 -0.655974,0.75397 H 4.0054732 q -0.6559675,0 -0.6559675,-0.75397 V 12.02225 q 0,-0.46869 0.1240994,-0.61133 0.1241058,-0.142647 0.5318681,-0.142647 h 7.8716488 q 0.407769,0 0.531869,0.142647 0.124105,0.14264 0.124105,0.61133 z"
     id="path3709"
     inkscape:connector-curvature="0"
     style="stroke:none;stroke-width:0.06758124" />
</svg>
